<?xml version="1.0" standalone="no"?><!DOCTYPE svg PUBLIC "-//W3C//DTD SVG 1.1//EN" "http://www.w3.org/Graphics/SVG/1.1/DTD/svg11.dtd"><svg t="1644559698713" class="icon" viewBox="0 0 1024 1024" version="1.1" xmlns="http://www.w3.org/2000/svg" p-id="1700" xmlns:xlink="http://www.w3.org/1999/xlink" width="200" height="200"><defs><style type="text/css"></style></defs><path d="M80 800H16v-64h882.84A109.16 109.16 0 0 1 1008 845.16v53.68A109.16 109.16 0 0 1 898.84 1008H16v-64h64" fill="#A95A18" p-id="1701"></path><path d="M944 672h64v64H125.16A109.16 109.16 0 0 1 16 626.84v-53.68A109.16 109.16 0 0 1 125.16 464H1008v64h-64" fill="#F69038" p-id="1702"></path><path d="M80 800h804a60 60 0 0 1 60 60v22.862a60 60 0 0 1-60 60H80V800z" fill="#90E3F5" p-id="1703"></path><path d="M80 848h416v32H80z" fill="#FCFBFA" p-id="1704"></path><path d="M140 528h804v144H140a60 60 0 0 1-60-60v-22.862C80 556 106.862 528 140 528z" fill="#90E3F5" p-id="1705"></path><path d="M368 592h416v32H368z" fill="#FCFBFA" p-id="1706"></path><path d="M296 312m-152 0a152 152 0 1 0 304 0 152 152 0 1 0-304 0Z" fill="#90E3F5" p-id="1707"></path><path d="M680 312m-152 0a152 152 0 1 0 304 0 152 152 0 1 0-304 0Z" fill="#90E3F5" p-id="1708"></path><path d="M448 304h80v32h-80zM832 304h48v32h-48zM96 304h48v32H96z" fill="#087182" p-id="1709"></path><path d="M224 312H192a104.118 104.118 0 0 1 104-104v32a72.082 72.082 0 0 0-72 72zM608 312h-32a104.118 104.118 0 0 1 104-104v32a72.082 72.082 0 0 0-72 72z" fill="#FCFBFA" p-id="1710"></path><path d="M928 144m-48 0a48 48 0 1 0 96 0 48 48 0 1 0-96 0Z" fill="#90E3F5" p-id="1711"></path><path d="M66.018 87.272l27.354-50.018 27.356 50.018 50.018 27.356-50.018 27.354L93.372 192 66.018 141.982 16 114.628z" fill="#FE9E4A" p-id="1712"></path><path d="M448 128h32v32h-32z" fill="#90E3F5" p-id="1713"></path><path d="M592 64h32v32h-32z" fill="#FE9E4A" p-id="1714"></path><path d="M140 528c-28.642 0-52.582 20.926-58.552 48H944v-48zM885.448 800c28.642 0 52.582 20.926 58.552 48H81.448v-48z" fill="#232626" opacity=".2" p-id="1715"></path></svg>